<?xml version="1.0" encoding="utf-8"?><svg viewBox="0 0 19 18" xmlns="http://www.w3.org/2000/svg" xmlns:xlink="http://www.w3.org/1999/xlink"><style>:root>svg{display:none}:root>svg:target{display:block}</style><svg fill="none" viewBox="0 0 16 15" id="close" xmlns="http://www.w3.org/2000/svg"><path transform="scale(1.008 .99193) rotate(45 -.992 1.814)" stroke="#000" d="M0-.5h19.642"/><path transform="scale(1.008 .99193) rotate(-45 18.478 6.25)" stroke="#000" d="M0-.5h19.642"/></svg><svg fill="none" viewBox="0 0 6 10" id="crumb-arrow" xmlns="http://www.w3.org/2000/svg"><path opacity=".4" d="M1 9l4-4-4-4" stroke="#333" stroke-width=".8"/></svg><svg fill="none" viewBox="0 0 15 16" id="delete" xmlns="http://www.w3.org/2000/svg"><path d="M9 2.424c0-.386-.158-.755-.44-1.028A1.524 1.524 0 007.5.97c-.398 0-.78.153-1.06.426-.282.273-.44.642-.44 1.028H5c0-.643.263-1.26.732-1.714A2.54 2.54 0 017.5 0a2.54 2.54 0 011.768.71c.469.455.732 1.071.732 1.714h4.5c.133 0 .26.051.354.142a.478.478 0 010 .686.508.508 0 01-.354.142h-.554l-1.296 10.89a1.92 1.92 0 01-.656 1.225c-.367.316-.84.491-1.331.491H4.337c-.49 0-.964-.175-1.33-.491a1.921 1.921 0 01-.657-1.225L1.053 3.394H.5a.51.51 0 01-.32-.112.482.482 0 01-.172-.286L0 2.91c0-.128.053-.252.146-.343A.508.508 0 01.5 2.424H9zm3.938.97H2.061l1.282 10.778a.96.96 0 00.328.613c.184.158.42.245.666.245h6.326c.245 0 .482-.087.665-.245a.96.96 0 00.328-.613l1.282-10.778zM6 5.818c.245 0 .45.15.492.348l.008.077v5.94c0 .233-.224.423-.5.423-.245 0-.45-.15-.492-.348L5.5 12.18V6.244c0-.235.224-.425.5-.425zm3 0c.245 0 .45.15.492.348l.008.077v5.94c0 .233-.224.423-.5.423-.245 0-.45-.15-.492-.348L8.5 12.18V6.244c0-.235.224-.425.5-.425z" fill="#F75000" fill-opacity=".3"/></svg><svg fill="none" viewBox="0 0 6 9" id="pagination-arrow" xmlns="http://www.w3.org/2000/svg"><path d="M1 1l3.5 3.5L1 8" stroke="#F75000"/></svg><svg fill="none" viewBox="0 0 19 18" id="star" xmlns="http://www.w3.org/2000/svg"><path d="M9.5.993l2.64 4.532.11.19.215.047 5.125 1.11-3.494 3.91-.146.164.022.219.528 5.217-4.798-2.115-.202-.088-.202.088L4.5 16.383l.528-5.217.022-.22-.146-.164-3.494-3.91 5.125-1.11.215-.046.11-.19L9.5.993z" stroke="#F75000" stroke-opacity=".2"/></svg></svg>