<svg width="12" height="12" viewBox="0 0 12 12" fill="none" xmlns="http://www.w3.org/2000/svg">
<path d="M5.99939 0.0546875C9.2831 0.0546875 11.9451 2.71666 11.9451 6.00036C11.9451 9.28407 9.2831 11.946 5.99939 11.946C2.71568 11.946 0.0537109 9.28407 0.0537109 6.00036C0.0537109 2.71666 2.71568 0.0546875 5.99939 0.0546875Z" fill="url(#paint0_linear)"/>
<path d="M5.99928 0.172852C9.21793 0.172852 11.8272 2.78209 11.8272 6.00074C11.8272 9.2194 9.21793 11.8286 5.99928 11.8286C2.78062 11.8286 0.171387 9.2194 0.171387 6.00074C0.171387 2.78209 2.78062 0.172852 5.99928 0.172852Z" fill="url(#paint1_linear)"/>
<path d="M11.5576 5.86739C11.5576 8.9369 9.06925 11.4252 5.99974 11.4252C2.93023 11.4252 0.441895 8.9369 0.441895 5.86739C0.441895 2.79791 2.93023 0.30957 5.99974 0.30957C9.06925 0.30957 11.5576 2.79791 11.5576 5.86739Z" fill="url(#paint2_linear)"/>
<path d="M0.552734 5.86787C0.552734 2.86011 2.991 0.421875 5.99875 0.421875C9.00646 0.421875 11.4447 2.86011 11.4447 5.86787C11.4447 8.8756 9.00646 11.3138 5.99875 11.3138C2.991 11.3138 0.552734 8.8756 0.552734 5.86787Z" fill="url(#paint3_linear)"/>
<path fill-rule="evenodd" clip-rule="evenodd" d="M2.01882 8.16549L2.5011 8.44649L3.01004 8.74031L3.01459 8.73772L4.00798 9.31647L4.0125 9.31389L5.00363 9.89129L5.00816 9.88871L5.99929 10.4661L6.9972 9.89524L7.99512 9.32429V9.31647L8.48972 9.02829L8.98846 8.73772L8.99073 8.73902L9.98197 8.16678V7.01706V5.86737V4.71765L9.9819 3.56796L8.98625 2.99309L8.87082 2.92645L7.99059 2.41825L6.99494 1.84338L5.99929 1.26855L5.00363 1.84338L4.00791 2.41825L3.01226 2.99314L2.0166 3.56796V4.71765V5.86737V7.01706V8.16159V8.16419V8.16678L2.01882 8.16549Z" fill="#915C1A" fill-opacity="0.301961"/>
<path fill-rule="evenodd" clip-rule="evenodd" d="M4.06931 3.64609L4.07056 3.64535L5.03508 3.08848L5.99956 2.53166L6.96403 3.08848L7.92851 3.64535L6.96403 4.20218L5.99956 4.75905L5.03476 4.20275L4.06931 3.64609ZM7.92463 7.8547V8.09283L7.92856 8.09507V8.09756L7.92463 8.09987V8.10238L7.92851 8.10012L7.93513 8.10388L8.89742 7.5433V6.42956V5.4103V5.31591V4.20441L8.89296 4.20185L7.92851 4.75905L6.96403 5.31587L5.99956 5.87274L5.03508 5.31587L4.0706 4.75905L3.10612 4.20222L3.10608 5.31591V6.42956V7.5433L4.06836 8.10388L4.07494 8.10019L4.0706 8.09763V8.09507L4.07494 8.09255L4.07072 6.98638L4.0706 5.87274L5.03508 6.42956L5.03946 6.43208L5.99956 6.98643L6.95969 6.43208L6.96403 6.42956L7.92856 5.87274L7.92463 7.8547ZM6.96445 8.66426V7.64177L6.96408 7.54826L5.99956 8.10012L5.98968 8.09438L5.03946 7.54076V7.5433L5.03732 7.54457L5.03508 7.54581L5.03069 8.65694L5.03503 8.65946L5.03727 8.65821L5.52202 8.93811L5.99956 9.21633L6.00394 9.21381L6.24089 9.07824L6.96445 8.66426ZM2.14375 8.09888L2.61094 8.37109L3.10393 8.6557L3.10832 8.65318L4.0706 9.21381L4.07499 9.21132L5.03508 9.77064L5.03946 9.76814L5.99956 10.3275L6.96622 9.77447L7.93289 9.22141V9.21381L8.41199 8.93465L8.89511 8.65318L8.8973 8.65445L9.85751 8.10012V6.98643V5.87274V4.75905L9.85744 3.64535L8.89296 3.08848L8.78116 3.02391L7.92851 2.53166L6.96403 1.97479L5.99956 1.41797L5.03508 1.97479L4.07056 2.53166L3.10608 3.08853L2.1416 3.64535V4.75905V5.87274V6.98643V8.09511V8.09763V8.10012L2.14375 8.09888Z" fill="#FDF093"/>
<path fill-rule="evenodd" clip-rule="evenodd" d="M4.06934 3.64666L4.18908 3.7157L5.03511 3.22726L5.99958 2.67043L6.96406 3.22726L7.80886 3.71501L7.92854 3.64592L6.96406 3.08905L5.99958 2.53223L5.03511 3.08905L4.07058 3.64592L4.06934 3.64666Z" fill="#8A5627"/>
<path fill-rule="evenodd" clip-rule="evenodd" d="M5.03491 5.31616L4.07043 4.75934L3.10596 4.20252V4.34073L4.07043 4.89755L5.03491 5.45437L5.99939 6.01124L6.96386 5.45437L7.92834 4.89755L8.8928 4.34036L8.89725 4.34292V4.20471L8.8928 4.20215L7.92834 4.75934L6.96386 5.31616L5.99939 5.87303L5.03491 5.31616Z" fill="#8A5627"/>
<path fill-rule="evenodd" clip-rule="evenodd" d="M5.98927 8.09463L5.03905 7.54102V7.54355L5.03691 7.54482L5.03467 7.54607V7.68428L5.03691 7.68301L5.03905 7.68176V7.6792L5.98927 8.23284L5.99914 8.23858L6.96404 7.68672V7.64202L6.96367 7.54852L5.99914 8.10038L5.98927 8.09463Z" fill="#8A5627"/>
<path fill-rule="evenodd" clip-rule="evenodd" d="M5.99929 10.3282C4.71464 9.57981 3.42801 8.84806 2.14348 8.09961L2.14133 8.10086L2.0166 8.16704C3.34648 8.93488 4.67285 9.69367 5.99929 10.4664C7.33334 9.70323 8.65161 8.93509 9.98195 8.16704L9.85724 8.10086C8.56872 8.84472 7.29176 9.58879 5.99929 10.3282Z" fill="#8A5627"/>
<path fill-rule="evenodd" clip-rule="evenodd" d="M4.06931 3.64609L4.07056 3.64535L5.03508 3.08848L5.99956 2.53166L6.96403 3.08848L7.92851 3.64535L6.96403 4.20218L5.99956 4.75905L5.03476 4.20275L4.06931 3.64609ZM7.92463 7.8547V8.09283L7.92856 8.09507V8.09756L7.92463 8.09987V8.10238L7.92851 8.10012L7.93513 8.10388L8.89742 7.5433V6.42956V5.4103V5.31591V4.20441L8.89296 4.20185L7.92851 4.75905L6.96403 5.31587L5.99956 5.87274L5.03508 5.31587L4.0706 4.75905L3.10612 4.20222L3.10608 5.31591V6.42956V7.5433L4.06836 8.10388L4.07494 8.10019L4.0706 8.09763V8.09507L4.07494 8.09255L4.07072 6.98638L4.0706 5.87274L5.03508 6.42956L5.03946 6.43208L5.99956 6.98643L6.95969 6.43208L6.96403 6.42956L7.92856 5.87274L7.92463 7.8547ZM6.96445 8.66426V7.64177L6.96408 7.54826L5.99956 8.10012L5.98968 8.09438L5.03946 7.54076V7.5433L5.03732 7.54457L5.03508 7.54581L5.03069 8.65694L5.03503 8.65946L5.03727 8.65821L5.52202 8.93811L5.99956 9.21633L6.00394 9.21381L6.24089 9.07824L6.96445 8.66426ZM2.14375 8.09888C3.42791 8.84712 4.71706 9.58032 5.99956 10.3275C7.28879 9.58992 8.57129 8.84262 9.85751 8.10012V6.98643V5.87274V4.75905L9.85744 3.64535L8.89296 3.08848L8.78116 3.02391L7.92851 2.53166L6.96403 1.97479L5.99956 1.41797L5.03508 1.97479L4.07056 2.53166L3.10608 3.08853L2.1416 3.64535V4.75905V5.87274V6.98643V8.09511V8.09763V8.10012L2.14375 8.09888Z" fill="#C99D24"/>
<defs>
<linearGradient id="paint0_linear" x1="5.99936" y1="11.9413" x2="5.99936" y2="-1.31059" gradientUnits="userSpaceOnUse">
<stop stop-color="#C99D24"/>
<stop offset="0.211765" stop-color="#B78A28"/>
<stop offset="0.490196" stop-color="#FAF195"/>
<stop offset="0.568627" stop-color="#FAF195"/>
<stop offset="0.619608" stop-color="#C99D24"/>
<stop offset="0.74902" stop-color="#C99D24"/>
<stop offset="0.85098" stop-color="#8A5627"/>
<stop offset="1" stop-color="#8A5627"/>
</linearGradient>
<linearGradient id="paint1_linear" x1="5.99926" y1="11.8687" x2="5.99926" y2="-1.23143" gradientUnits="userSpaceOnUse">
<stop stop-color="#8A5627"/>
<stop offset="0.141176" stop-color="#8A5627"/>
<stop offset="0.239216" stop-color="#C99D24"/>
<stop offset="0.368627" stop-color="#C99D24"/>
<stop offset="0.419608" stop-color="#FAF195"/>
<stop offset="0.501961" stop-color="#FAF195"/>
<stop offset="0.780392" stop-color="#B78A28"/>
<stop offset="1" stop-color="#C99D24"/>
</linearGradient>
<linearGradient id="paint2_linear" x1="5.99969" y1="11.1549" x2="5.99969" y2="0.617555" gradientUnits="userSpaceOnUse">
<stop stop-color="#C99D24"/>
<stop offset="0.0196078" stop-color="#C99D24"/>
<stop offset="0.211765" stop-color="#FAF195"/>
<stop offset="0.270588" stop-color="#FAF195"/>
<stop offset="0.439216" stop-color="#C99D24"/>
<stop offset="0.678431" stop-color="#FAF195"/>
<stop offset="0.690196" stop-color="#FAF195"/>
<stop offset="0.901961" stop-color="#B78A28"/>
<stop offset="1" stop-color="#C99D24"/>
</linearGradient>
<linearGradient id="paint3_linear" x1="5.9987" y1="0.875637" x2="5.9987" y2="11.7676" gradientUnits="userSpaceOnUse">
<stop stop-color="#8A5627"/>
<stop offset="0.231373" stop-color="#B78A28"/>
<stop offset="0.239216" stop-color="#B78A28"/>
<stop offset="0.658824" stop-color="#FAF195"/>
<stop offset="0.831373" stop-color="#FAF195"/>
<stop offset="1" stop-color="#C99D24"/>
</linearGradient>
</defs>
</svg>
