<svg width="24" height="24" viewBox="0 0 24 24" fill="none" xmlns="http://www.w3.org/2000/svg">
<path d="M6.17 5.14952H6.27614L6.31145 5.04943C6.50773 4.49317 6.87171 4.01148 7.35324 3.67076C7.83477 3.33004 8.41012 3.14707 9 3.14707C9.58988 3.14707 10.1652 3.33004 10.6468 3.67076C11.1283 4.01148 11.4923 4.49317 11.6885 5.04943L11.7239 5.14952H11.83H19C19.2254 5.14952 19.4416 5.23907 19.601 5.39848C19.7604 5.55789 19.85 5.77409 19.85 5.99952C19.85 6.22496 19.7604 6.44116 19.601 6.60056C19.4416 6.75997 19.2254 6.84952 19 6.84952H11.83H11.7239L11.6885 6.94961C11.4923 7.50588 11.1283 7.98757 10.6468 8.32828C10.1652 8.669 9.58988 8.85197 9 8.85197C8.41012 8.85197 7.83477 8.669 7.35324 8.32828C6.87171 7.98757 6.50773 7.50588 6.31145 6.94961L6.27614 6.84952H6.17H5C4.77457 6.84952 4.55837 6.75997 4.39896 6.60056C4.23955 6.44116 4.15 6.22495 4.15 5.99952C4.15 5.77409 4.23955 5.55789 4.39896 5.39848C4.55837 5.23907 4.77457 5.14952 5 5.14952H6.17ZM12.17 11.1495H12.2761L12.3115 11.0494C12.5077 10.4932 12.8717 10.0115 13.3532 9.67076C13.8348 9.33004 14.4101 9.14707 15 9.14707C15.5899 9.14707 16.1652 9.33004 16.6468 9.67076C17.1283 10.0115 17.4923 10.4932 17.6885 11.0494L17.7239 11.1495H17.83H19C19.2254 11.1495 19.4416 11.2391 19.601 11.3985C19.7604 11.5579 19.85 11.7741 19.85 11.9995C19.85 12.225 19.7604 12.4412 19.601 12.6006C19.4416 12.76 19.2254 12.8495 19 12.8495H17.83H17.7239L17.6885 12.9496C17.4923 13.5059 17.1283 13.9876 16.6468 14.3283C16.1652 14.669 15.5899 14.852 15 14.852C14.4101 14.852 13.8348 14.669 13.3532 14.3283C12.8717 13.9876 12.5077 13.5059 12.3115 12.9496L12.2761 12.8495H12.17H5C4.77457 12.8495 4.55837 12.76 4.39896 12.6006C4.23955 12.4412 4.15 12.225 4.15 11.9995C4.15 11.7741 4.23955 11.5579 4.39896 11.3985C4.55837 11.2391 4.77457 11.1495 5 11.1495H12.17ZM6.17 17.1495H6.27614L6.31145 17.0494C6.50773 16.4932 6.87172 16.0115 7.35324 15.6708C7.83477 15.33 8.41012 15.1471 9 15.1471C9.58988 15.1471 10.1652 15.33 10.6468 15.6708C11.1283 16.0115 11.4923 16.4932 11.6885 17.0494L11.7239 17.1495H11.83H19C19.2254 17.1495 19.4416 17.2391 19.601 17.3985C19.7604 17.5579 19.85 17.7741 19.85 17.9995C19.85 18.225 19.7604 18.4412 19.601 18.6006C19.4416 18.76 19.2254 18.8495 19 18.8495H11.83H11.7239L11.6885 18.9496C11.4923 19.5059 11.1283 19.9876 10.6468 20.3283C10.1652 20.669 9.58988 20.852 9 20.852C8.41012 20.852 7.83477 20.669 7.35324 20.3283C6.87171 19.9876 6.50773 19.5059 6.31145 18.9496L6.27614 18.8495H6.17H5C4.77457 18.8495 4.55837 18.76 4.39896 18.6006C4.23955 18.4412 4.15 18.225 4.15 17.9995C4.15 17.7741 4.23955 17.5579 4.39896 17.3985C4.55837 17.2391 4.77457 17.1495 5 17.1495H6.17ZM9 4.84952C8.695 4.84952 8.40249 4.97068 8.18683 5.18635C7.97116 5.40201 7.85 5.69452 7.85 5.99952C7.85 6.30452 7.97116 6.59703 8.18683 6.81269C8.40249 7.02836 8.695 7.14952 9 7.14952C9.305 7.14952 9.59751 7.02836 9.81317 6.81269C10.0288 6.59703 10.15 6.30452 10.15 5.99952C10.15 5.69452 10.0288 5.40201 9.81317 5.18635C9.59751 4.97068 9.305 4.84952 9 4.84952ZM15 10.8495C14.695 10.8495 14.4025 10.9707 14.1868 11.1863C13.9712 11.402 13.85 11.6945 13.85 11.9995C13.85 12.3045 13.9712 12.597 14.1868 12.8127C14.4025 13.0284 14.695 13.1495 15 13.1495C15.305 13.1495 15.5975 13.0284 15.8132 12.8127C16.0288 12.597 16.15 12.3045 16.15 11.9995C16.15 11.6945 16.0288 11.402 15.8132 11.1863C15.5975 10.9707 15.305 10.8495 15 10.8495ZM9 16.8495C8.695 16.8495 8.40249 16.9707 8.18683 17.1863C7.97116 17.402 7.85 17.6945 7.85 17.9995C7.85 18.3045 7.97116 18.597 8.18683 18.8127C8.40249 19.0284 8.695 19.1495 9 19.1495C9.305 19.1495 9.59751 19.0284 9.81317 18.8127C10.0288 18.597 10.15 18.3045 10.15 17.9995C10.15 17.6945 10.0288 17.402 9.81317 17.1863C9.59751 16.9707 9.305 16.8495 9 16.8495Z" fill="black" stroke="white" stroke-width="0.3"/>
</svg>
