<svg width="13" height="12" viewBox="0 0 13 12" fill="none" xmlns="http://www.w3.org/2000/svg">
<path d="M3.5 5.375V10.375C3.5 10.5408 3.43415 10.6997 3.31694 10.8169C3.19973 10.9342 3.04076 11 2.875 11H1.625C1.45924 11 1.30027 10.9342 1.18306 10.8169C1.06585 10.6997 1 10.5408 1 10.375V6C1 5.83424 1.06585 5.67527 1.18306 5.55806C1.30027 5.44085 1.45924 5.375 1.625 5.375H3.5ZM3.5 5.375C4.16304 5.375 4.79893 5.11161 5.26777 4.64277C5.73661 4.17393 6 3.53804 6 2.875V2.25C6 1.91848 6.1317 1.60054 6.36612 1.36612C6.60054 1.1317 6.91848 1 7.25 1C7.58152 1 7.89946 1.1317 8.13388 1.36612C8.3683 1.60054 8.5 1.91848 8.5 2.25V5.375H10.375C10.7065 5.375 11.0245 5.5067 11.2589 5.74112C11.4933 5.97554 11.625 6.29348 11.625 6.625L11 9.75C10.9101 10.1334 10.7396 10.4627 10.5142 10.6881C10.2887 10.9136 10.0205 11.023 9.75 11H5.375C4.87772 11 4.40081 10.8025 4.04917 10.4508C3.69754 10.0992 3.5 9.62228 3.5 9.125" stroke="#333333" stroke-linecap="round" stroke-linejoin="round"/>
</svg>
