<svg width="42" height="56" viewBox="0 0 42 56" fill="none" xmlns="http://www.w3.org/2000/svg">
<path d="M21 56C21 56 42 36.099 42 21C42 15.4305 39.7875 10.089 35.8492 6.15076C31.911 2.21249 26.5695 0 21 0C15.4305 0 10.089 2.21249 6.15076 6.15076C2.21249 10.089 8.29927e-08 15.4305 0 21C0 36.099 21 56 21 56ZM21 31.5C18.2152 31.5 15.5445 30.3938 13.5754 28.4246C11.6062 26.4555 10.5 23.7848 10.5 21C10.5 18.2152 11.6062 15.5445 13.5754 13.5754C15.5445 11.6062 18.2152 10.5 21 10.5C23.7848 10.5 26.4555 11.6062 28.4246 13.5754C30.3938 15.5445 31.5 18.2152 31.5 21C31.5 23.7848 30.3938 26.4555 28.4246 28.4246C26.4555 30.3938 23.7848 31.5 21 31.5Z" fill="#F75000"/>
</svg>
