<svg width="34" height="34" viewBox="0 0 34 34" fill="none" xmlns="http://www.w3.org/2000/svg">
<g clip-path="url(#clip0)">
<path d="M14.0662 6.86904C17.1744 5.73772 20.6264 7.34741 21.7555 10.4546L24.8921 19.0622C24.9126 19.1183 24.9087 19.1795 24.8835 19.2336C24.8583 19.2876 24.8139 19.3299 24.7578 19.3503L23.5403 19.7935C23.4847 19.8135 23.4234 19.8108 23.3698 19.7858C23.3163 19.7608 23.2748 19.7157 23.2545 19.6602L20.1178 11.0526C19.7287 9.98348 18.9456 9.13066 17.9149 8.65006C16.8843 8.16946 15.7276 8.11776 14.6608 8.50792C13.5917 8.89704 12.7389 9.68014 12.2593 10.7085C11.7787 11.7392 11.7281 12.8936 12.1172 13.9627L15.3128 22.7375L15.8305 24.1597C16.3145 25.4895 17.7884 26.1768 19.1182 25.6928C19.7616 25.4586 20.2742 24.988 20.5638 24.3669C20.8534 23.7459 20.8844 23.0507 20.6502 22.4073L17.4798 13.7018C17.3983 13.4829 17.2391 13.3073 17.0275 13.2087L17.0253 13.2076C16.8138 13.109 16.5792 13.101 16.3614 13.1802C16.1403 13.2607 15.9669 13.421 15.8683 13.6325C15.7707 13.8418 15.7616 14.0786 15.8409 14.2964L18.4335 21.4093C18.4539 21.4654 18.45 21.5266 18.4249 21.5806C18.3997 21.6346 18.3553 21.6769 18.2992 21.6973L17.0816 22.1405C17.026 22.1606 16.9648 22.1578 16.9112 22.1328C16.8576 22.1079 16.8162 22.0627 16.7958 22.0072L14.2065 14.8931C13.9675 14.2365 13.9993 13.528 14.2941 12.8957C14.589 12.2634 15.1146 11.7825 15.7679 11.5447C17.1241 11.0511 18.6263 11.7543 19.1209 13.1082L19.4273 13.9551L22.2891 21.8127C22.4842 22.344 22.572 22.9088 22.5472 23.4743C22.5224 24.0397 22.3856 24.5947 22.1447 25.1069C21.6589 26.1488 20.7951 26.9377 19.7161 27.3305C18.5986 27.7353 17.4221 27.6497 16.423 27.1838C15.4238 26.7179 14.602 25.8717 14.1961 24.7564L10.4806 14.5584C9.93516 13.0548 10.005 11.4244 10.6819 9.97295C11.3575 8.5182 12.5615 7.41669 14.0662 6.86904Z" fill="black"/>
</g>
<defs>
<clipPath id="clip0">
<rect width="25.4254" height="25.4254" fill="white" transform="matrix(-0.914351 -0.404923 -0.404923 0.914351 33.543 10.2949)"/>
</clipPath>
</defs>
</svg>
