<svg width="21" height="21" viewBox="0 0 21 21" fill="none" xmlns="http://www.w3.org/2000/svg">
<g clip-path="url(#clip0)">
<path d="M15.9679 11.7337C15.2801 13.1276 14.3483 14.5163 13.3954 15.7631C12.4915 16.9386 11.5249 18.0646 10.5 19.1362C9.47505 18.0646 8.50852 16.9386 7.60463 15.7631C6.65175 14.5163 5.71988 13.1276 5.03213 11.7337C4.3365 10.3254 3.9375 9.00638 3.9375 7.875C3.9375 6.13452 4.6289 4.46532 5.85961 3.23461C7.09032 2.0039 8.75952 1.3125 10.5 1.3125C12.2405 1.3125 13.9097 2.0039 15.1404 3.23461C16.3711 4.46532 17.0625 6.13452 17.0625 7.875C17.0625 9.00638 16.6622 10.3254 15.9679 11.7337ZM10.5 21C10.5 21 18.375 13.5371 18.375 7.875C18.375 5.78642 17.5453 3.78338 16.0685 2.30653C14.5916 0.829685 12.5886 0 10.5 0C8.41142 0 6.40838 0.829685 4.93153 2.30653C3.45469 3.78338 2.625 5.78642 2.625 7.875C2.625 13.5371 10.5 21 10.5 21Z" fill="#333333"/>
<path d="M10.5 10.5C9.80381 10.5 9.13613 10.2234 8.64384 9.73116C8.15156 9.23887 7.875 8.57119 7.875 7.875C7.875 7.17881 8.15156 6.51113 8.64384 6.01884C9.13613 5.52656 9.80381 5.25 10.5 5.25C11.1962 5.25 11.8639 5.52656 12.3562 6.01884C12.8484 6.51113 13.125 7.17881 13.125 7.875C13.125 8.57119 12.8484 9.23887 12.3562 9.73116C11.8639 10.2234 11.1962 10.5 10.5 10.5ZM10.5 11.8125C11.5443 11.8125 12.5458 11.3977 13.2842 10.6592C14.0227 9.92081 14.4375 8.91929 14.4375 7.875C14.4375 6.83071 14.0227 5.82919 13.2842 5.09077C12.5458 4.35234 11.5443 3.9375 10.5 3.9375C9.45571 3.9375 8.45419 4.35234 7.71577 5.09077C6.97734 5.82919 6.5625 6.83071 6.5625 7.875C6.5625 8.91929 6.97734 9.92081 7.71577 10.6592C8.45419 11.3977 9.45571 11.8125 10.5 11.8125Z" fill="#333333"/>
</g>
<defs>
<clipPath id="clip0">
<rect width="21" height="21" fill="white"/>
</clipPath>
</defs>
</svg>
