<svg width="12" height="12" fill="none" xmlns="http://www.w3.org/2000/svg"><path d="M6 .055a5.946 5.946 0 110 11.891A5.946 5.946 0 016 .055z" fill="url(#paint0_linear)"/><path d="M6 .173a5.828 5.828 0 110 11.656A5.828 5.828 0 016 .173z" fill="url(#paint1_linear)"/><path d="M11.558 5.867a5.558 5.558 0 11-11.116 0 5.558 5.558 0 0111.116 0z" fill="url(#paint2_linear)"/><path d="M.553 5.868a5.446 5.446 0 1110.892 0 5.446 5.446 0 01-10.892 0z" fill="url(#paint3_linear)"/><path fill-rule="evenodd" clip-rule="evenodd" d="M2.019 8.165l.482.281.509.294.005-.002.993.578.005-.002.99.577.005-.002.991.577.998-.57.998-.572v-.008l.495-.288.498-.29.003.001.991-.572V3.568l-.996-.575-.115-.067-.88-.508-.996-.575-.996-.574-.995.574-.996.575-.996.575-.995.575v4.599l.002-.002z" fill="#915C1A" fill-opacity=".302"/><path fill-rule="evenodd" clip-rule="evenodd" d="M4.07 3.646l.965-.558L6 2.532l.964.556.965.557-.965.557L6 4.76l-.965-.556-.966-.557zm3.855 4.209v.238l.004.002v.003l-.004.002v.002l.004-.002.006.004.962-.56V4.203l-.004-.002-.964.557-.965.557L6 5.873l-.965-.557-.964-.557-.965-.557v3.341l.962.56.007-.003-.004-.002v-.003l.004-.002-.004-1.107V5.873l.964.557.004.002.96.554.96-.554.005-.002.965-.557-.004 1.982zm-.96.81V7.547L6 8.1l-.01-.006-.95-.553v.002l-.003.002h-.002l-.004 1.112.004.002h.002l.485.28.478.277.004-.002.237-.136.723-.414zm-4.821-.566l.467.272.493.285.004-.003.963.56.004-.002.96.56.004-.003.96.56.967-.554.967-.553v-.007l.479-.28.483-.28h.002l.96-.554V3.645l-.964-.557-.112-.064-.852-.492-.965-.557L6 1.418l-.965.557-.964.557-.965.557-.964.556V8.1l.002-.001z" fill="#FDF093"/><path fill-rule="evenodd" clip-rule="evenodd" d="M4.07 3.647l.12.069.845-.489L6 2.67l.964.557.845.488.12-.07-.965-.556L6 2.532l-.965.557-.964.557h-.002zm.965 1.669L4.07 4.76l-.964-.556v.138l.964.557.965.556.964.557.965-.557.964-.556.965-.558.004.003v-.138l-.004-.003-.965.557-.964.557-.965.557-.964-.557zm.955 2.779l-.951-.554v.003h-.002l-.002.002v.138l.002-.001.002-.001v-.003l.95.554.01.006.965-.552v-.138l-.965.551-.01-.005z" fill="#8A5627"/><path fill-rule="evenodd" clip-rule="evenodd" d="M6 10.328C4.714 9.58 3.427 8.848 2.142 8.1H2.14l-.124.067c1.33.768 2.656 1.527 3.982 2.3 1.334-.764 2.653-1.532 3.983-2.3l-.125-.066C8.57 8.845 7.292 9.589 6 10.328z" fill="#8A5627"/><path fill-rule="evenodd" clip-rule="evenodd" d="M4.07 3.646l.965-.558L6 2.532l.964.556.965.557-.965.557L6 4.76l-.965-.556-.966-.557zm3.855 4.209v.238l.004.002v.003l-.004.002v.002l.004-.002.006.004.962-.56V4.203l-.004-.002-.964.557-.965.557L6 5.873l-.965-.557-.964-.557-.965-.557v3.341l.962.56.007-.003-.004-.002v-.003l.004-.002-.004-1.107V5.873l.964.557.004.002.96.554.96-.554.005-.002.965-.557-.004 1.982zm-.96.81V7.547L6 8.1l-.01-.006-.95-.553v.002l-.003.002h-.002l-.004 1.112.004.002h.002l.485.28.478.277.004-.002.237-.136.723-.414zm-4.821-.566C3.428 8.847 4.717 9.58 6 10.328 7.289 9.59 8.57 8.843 9.858 8.1V3.645l-.965-.557-.112-.064-.852-.492-.965-.557L6 1.418l-.965.557-.964.557-.965.557-.964.556V8.1l.002-.001z" fill="#C99D24"/><defs><linearGradient id="paint0_linear" x1="5.999" y1="11.941" x2="5.999" y2="-1.311" gradientUnits="userSpaceOnUse"><stop stop-color="#C99D24"/><stop offset=".212" stop-color="#B78A28"/><stop offset=".49" stop-color="#FAF195"/><stop offset=".569" stop-color="#FAF195"/><stop offset=".62" stop-color="#C99D24"/><stop offset=".749" stop-color="#C99D24"/><stop offset=".851" stop-color="#8A5627"/><stop offset="1" stop-color="#8A5627"/></linearGradient><linearGradient id="paint1_linear" x1="5.999" y1="11.869" x2="5.999" y2="-1.231" gradientUnits="userSpaceOnUse"><stop stop-color="#8A5627"/><stop offset=".141" stop-color="#8A5627"/><stop offset=".239" stop-color="#C99D24"/><stop offset=".369" stop-color="#C99D24"/><stop offset=".42" stop-color="#FAF195"/><stop offset=".502" stop-color="#FAF195"/><stop offset=".78" stop-color="#B78A28"/><stop offset="1" stop-color="#C99D24"/></linearGradient><linearGradient id="paint2_linear" x1="6" y1="11.155" x2="6" y2=".618" gradientUnits="userSpaceOnUse"><stop stop-color="#C99D24"/><stop offset=".02" stop-color="#C99D24"/><stop offset=".212" stop-color="#FAF195"/><stop offset=".271" stop-color="#FAF195"/><stop offset=".439" stop-color="#C99D24"/><stop offset=".678" stop-color="#FAF195"/><stop offset=".69" stop-color="#FAF195"/><stop offset=".902" stop-color="#B78A28"/><stop offset="1" stop-color="#C99D24"/></linearGradient><linearGradient id="paint3_linear" x1="5.999" y1=".876" x2="5.999" y2="11.768" gradientUnits="userSpaceOnUse"><stop stop-color="#8A5627"/><stop offset=".231" stop-color="#B78A28"/><stop offset=".239" stop-color="#B78A28"/><stop offset=".659" stop-color="#FAF195"/><stop offset=".831" stop-color="#FAF195"/><stop offset="1" stop-color="#C99D24"/></linearGradient></defs></svg>