<svg width="24" height="24" fill="none" xmlns="http://www.w3.org/2000/svg"><path d="M6.17 5.15h.106l.035-.1a2.851 2.851 0 015.377 0l.036.1H19a.85.85 0 010 1.7h-7.276l-.036.1a2.85 2.85 0 01-5.377 0l-.035-.1H5a.85.85 0 110-1.7h1.17zm6 6h.106l.036-.1a2.85 2.85 0 015.377 0l.035.1H19a.85.85 0 010 1.7h-1.276l-.035.1a2.85 2.85 0 01-5.377 0l-.036-.1H5a.85.85 0 110-1.7h7.17zm-6 6h.106l.035-.1a2.851 2.851 0 015.377 0l.036.1H19a.85.85 0 010 1.7h-7.276l-.036.1a2.85 2.85 0 01-5.377 0l-.035-.1H5a.85.85 0 110-1.7h1.17zM9 4.85a1.15 1.15 0 100 2.3 1.15 1.15 0 000-2.3zm6 6a1.15 1.15 0 100 2.3 1.15 1.15 0 000-2.3zm-6 6a1.15 1.15 0 100 2.3 1.15 1.15 0 000-2.3z" fill="#000" stroke="#fff" stroke-width=".3"/></svg>