<svg width="34" height="34" fill="none" xmlns="http://www.w3.org/2000/svg"><g clip-path="url(#clip0)"><path d="M14.066 6.869a6.007 6.007 0 017.69 3.586l3.136 8.607a.223.223 0 01-.008.172.223.223 0 01-.126.116l-1.218.444a.224.224 0 01-.285-.134l-3.137-8.607a4.231 4.231 0 00-2.203-2.403 4.221 4.221 0 00-3.254-.142 4.23 4.23 0 00-2.402 2.2 4.226 4.226 0 00-.142 3.255l3.196 8.775.518 1.422a2.567 2.567 0 003.287 1.533 2.545 2.545 0 001.446-1.326c.29-.621.32-1.316.086-1.96l-3.17-8.705a.875.875 0 00-.453-.493l-.002-.001a.86.86 0 00-.664-.028.866.866 0 00-.52 1.116l2.592 7.113a.224.224 0 01-.008.172.223.223 0 01-.126.116l-1.217.444a.223.223 0 01-.286-.134l-2.59-7.114a2.594 2.594 0 01.088-1.997 2.6 2.6 0 011.474-1.351 2.62 2.62 0 013.353 1.563l.306.847 2.862 7.858a4.277 4.277 0 01-.144 3.294 4.302 4.302 0 01-5.722 2.077 4.291 4.291 0 01-2.227-2.428l-3.715-10.198a5.97 5.97 0 01.2-4.585 5.95 5.95 0 013.385-3.104z" fill="#000"/></g><defs><clipPath id="clip0"><path fill="#fff" transform="scale(-1 1) rotate(-23.886 7.564 84.438)" d="M0 0h25.425v25.425H0z"/></clipPath></defs></svg>