<svg width="21" height="21" fill="none" xmlns="http://www.w3.org/2000/svg"><g clip-path="url(#clip0)" fill="#333"><path d="M15.968 11.734c-.688 1.394-1.62 2.782-2.573 4.03a41.331 41.331 0 01-2.895 3.372 41.32 41.32 0 01-2.895-3.373c-.953-1.247-1.885-2.635-2.573-4.03-.696-1.408-1.095-2.727-1.095-3.858a6.563 6.563 0 1113.126 0c0 1.131-.4 2.45-1.095 3.859zM10.5 21s7.875-7.463 7.875-13.125a7.875 7.875 0 00-15.75 0C2.625 13.537 10.5 21 10.5 21z"/><path d="M10.5 10.5a2.625 2.625 0 110-5.25 2.625 2.625 0 010 5.25zm0 1.313a3.937 3.937 0 100-7.875 3.937 3.937 0 000 7.874z"/></g><defs><clipPath id="clip0"><path fill="#fff" d="M0 0h21v21H0z"/></clipPath></defs></svg>